P3
# komentarz do pliku .ppm
6 6
255
0 0 255 255 0 0 0 255 0 0 0 255 255 0 0 0 255 0
0 0 255 255 0 0 0 255 0 0 0 255 255 0 0 0 255 0
0 0 255 255 0 0 0 255 0 0 0 255 255 0 0 0 255 0
0 0 255 255 0 0 0 255 0 0 0 255 255 0 0 0 255 0
0 0 255 255 0 0 0 255 0 0 0 255 255 0 0 0 255 0
0 0 255 255 0 0 0 255 0 0 0 255 255 0 0 0 255 0